<svg
  width="208"
  height="176"
  viewBox="0 0 208 176"
  xmlns="http://www.w3.org/2000/svg"
>
  <!-- Card -->
  <rect
    x="1"
    y="1"
    width="206"
    height="174"
    rx="12"
    fill="#ffffff"
    stroke="#d6d3d1"
  />

  <!-- ===== Item 09 ===== -->
  <rect x="16" y="16" width="32" height="32" rx="8" fill="#fafafa" stroke="#d6d3d1" />
  <text
    x="32"
    y="36"
    text-anchor="middle"
    font-size="12"
    font-weight="700"
    fill="#a8a29e"
    font-family="Arial, sans-serif"
  >09</text>

  <rect x="56" y="22" width="48" height="6" rx="3" fill="#d6d3d1" />
  <rect x="56" y="32" width="120" height="6" rx="3" fill="#e7e5e4" />

  <!-- ===== Item 10 (active) ===== -->
  <rect
    x="16"
    y="60"
    width="32"
    height="32"
    rx="8"
    fill="#17838F"
    opacity="0.15"
    stroke="#17838F"
    stroke-opacity="0.25"
  />
  <text
    x="32"
    y="80"
    text-anchor="middle"
    font-size="12"
    font-weight="700"
    fill="#17838F"
    font-family="Arial, sans-serif"
  >10</text>

  <!-- Active content -->
  <rect x="56" y="60" width="136" height="32" rx="8" fill="#fafafa" />
  <rect x="64" y="66" width="64" height="6" rx="3" fill="#17838F" opacity="0.25" />

  <rect x="64" y="76" width="40" height="6" rx="3" fill="#17838F" opacity="0.15" />
  <circle cx="184" cy="79" r="4" fill="#4ade80" />

  <!-- ===== Item 11 (inactive) ===== -->
  <g opacity="0.5">
    <rect x="16" y="108" width="32" height="32" rx="8" fill="#fafafa" stroke="#d6d3d1" />
    <text
      x="32"
      y="128"
      text-anchor="middle"
      font-size="12"
      font-weight="700"
      fill="#a8a29e"
      font-family="Arial, sans-serif"
    >11</text>

    <rect x="56" y="116" width="40" height="6" rx="3" fill="#d6d3d1" />
  </g>
</svg>
